<?xml version="1.0" encoding="UTF-8"?><svg id="Layer_1" xmlns="http://www.w3.org/2000/svg" viewBox="0 0 4406.86 4406.88"><path d="M3074.93,3255.83c-51.22-73.09-105.9-144.31-163.68-213.38-87.39,271.31-90.54,592.45,3.73,941.52-491.61-928.96-1515.02-1660.16-2492.08-1780.52,268.79-36.73,496.43-130.35,675.88-269.1-48.88-9.22-97.72-16.87-146.44-22.87,81.39-11.12,158.7-27.89,231.73-49.88,344.7-323.87,348.28-1132.11,186.66-1730.57,125.09,236.38,405.77,751.81,590.2,955.78,14.9-53.65,26.37-109.25,34.29-166.63C1727.91,641.9,1498.09,331.1,1322.86,0,1633.32,1149.59,1090.06,2054.49,0,2203.45c1209.11,148.94,2475.63,1053.83,3084,2203.43-115.03-425.95-112.83-818.29-9.06-1151.05Z"/><path d="M3780.05,2061.62c-44.1,23.97-85.93,50.33-125.4,78.94,109.8,28.24,219.84,49.41,329.29,62.89-228.54,31.23-427.33,103.59-592.05,209.85-103.02,154.65-166.95,338.25-187.02,542.9,230.46-402.92,644.76-676.61,1201.98-752.75-208.45-25.68-418.61-73.84-626.8-141.83Z"/><path d="M4254.05,1911.49c-905.91-111.61-1854.78-789.55-2310.58-1650.85,232.6,861.3-174.41,1539.24-991.12,1650.85,905.89,111.59,1854.78,789.55,2310.58,1650.85-232.6-861.3,174.41-1539.26,991.12-1650.85ZM3136.31,3245.47c-368.32-695.98-1135.09-1243.81-1867.09-1333.99,659.93-90.18,904.16-848.86,716.22-1544.84,368.32,695.98,1219.73,1454.66,1951.75,1544.84-659.93,90.18-988.84,638.01-800.88,1333.99Z"/><path d="M3074.93,3255.83c-51.22-73.09-105.9-144.31-163.68-213.38-87.39,271.31-90.54,592.45,3.73,941.52-491.61-928.96-1515.02-1660.16-2492.08-1780.52,268.79-36.73,496.43-130.35,675.88-269.1-48.88-9.22-97.72-16.87-146.44-22.87,81.39-11.12,158.7-27.89,231.73-49.88,344.7-323.87,348.28-1132.11,186.66-1730.57,125.09,236.38,405.77,751.81,590.2,955.78,14.9-53.65,26.37-109.25,34.29-166.63C1727.91,641.9,1498.09,331.1,1322.86,0,1633.32,1149.59,1090.06,2054.49,0,2203.45c1209.11,148.94,2475.63,1053.83,3084,2203.43-115.03-425.95-112.83-818.29-9.06-1151.05Z"/><path d="M3780.05,2061.62c-44.1,23.97-85.93,50.33-125.4,78.94,109.8,28.24,219.84,49.41,329.29,62.89-228.54,31.23-427.33,103.59-592.05,209.85-103.02,154.65-166.95,338.25-187.02,542.9,230.46-402.92,644.76-676.61,1201.98-752.75-208.45-25.68-418.61-73.84-626.8-141.83Z"/><path d="M4254.05,1911.49c-905.91-111.61-1854.78-789.55-2310.58-1650.85,232.6,861.3-174.41,1539.24-991.12,1650.85,905.89,111.59,1854.78,789.55,2310.58,1650.85-232.6-861.3,174.41-1539.26,991.12-1650.85ZM3136.31,3245.47c-368.32-695.98-1135.09-1243.81-1867.09-1333.99,659.93-90.18,904.16-848.86,716.22-1544.84,368.32,695.98,1219.73,1454.66,1951.75,1544.84-659.93,90.18-988.84,638.01-800.88,1333.99Z"/></svg>